<svg width="11" height="8" viewBox="0 0 11 8" fill="none" xmlns="http://www.w3.org/2000/svg">
<path d="M9.52175 6.33708C10.0659 5.80184 10.572 5.09091 10.9643 4.15117C11.0064 4.05312 11.0064 3.9428 10.9643 3.84474C9.40365 0.106231 6.042 0 5.66239 0C5.40932 0 3.79808 0.0531154 2.29652 1.22983L0.672636 0.081716C0.482831 -0.0490296 0.221322 -0.0122574 0.0821315 0.171604C-0.0570585 0.355465 -0.0148792 0.608784 0.174925 0.743616L1.67227 1.80184C1.17878 2.32074 0.719032 2.98264 0.356294 3.84883C0.314116 3.94688 0.314116 4.0572 0.356294 4.15526C1.91691 7.88968 5.28278 8 5.66239 8C5.90702 8 7.41281 7.94689 8.86798 6.88866L10.3274 7.91828C10.4033 7.9714 10.4876 7.99591 10.5762 7.99591C10.707 7.99591 10.8335 7.93871 10.9179 7.8284C11.0571 7.64454 11.0149 7.39122 10.8251 7.25638L9.52175 6.33708ZM5.66239 0.81716C5.97873 0.81716 8.74144 0.907048 10.1165 3.99591C9.75795 4.79673 9.30664 5.39734 8.8258 5.8427L7.3622 4.80899C7.48873 4.55567 7.56465 4.27783 7.56465 3.99591C7.56465 2.97855 6.70842 2.14913 5.65817 2.14913C5.15624 2.14913 4.68384 2.34116 4.33376 2.66803L3.00512 1.72829C4.22409 0.862104 5.45571 0.81716 5.66239 0.81716ZM6.67046 4.31869L5.04236 3.1665C5.21951 3.03984 5.43462 2.96221 5.66239 2.96221C6.24867 2.96221 6.72529 3.4239 6.72529 3.99183C6.72529 4.10623 6.70421 4.21655 6.67046 4.31869ZM5.66239 7.17467C5.34605 7.17467 2.58334 7.08478 1.20831 3.99591C1.53308 3.26864 1.93378 2.71297 2.35979 2.28396L8.15516 6.38202C6.99102 7.14198 5.85641 7.17467 5.66239 7.17467Z" fill="#737A86"/>
</svg>
