<svg width="11" height="8" viewBox="0 0 11 8" fill="none" xmlns="http://www.w3.org/2000/svg">
<path fill-rule="evenodd" clip-rule="evenodd" d="M0.0228214 3.87567C0.718331 1.82823 3.02659 0 5.5 0C7.97341 0 10.2817 1.82823 10.9772 3.87567C11.0076 3.95665 11.0076 4.04337 10.9772 4.12435C10.2817 6.1718 7.97341 8 5.5 8C3.02659 8 0.718331 6.1718 0.0228214 4.12435C-0.00760713 4.04337 -0.00760713 3.95665 0.0228214 3.87567ZM0.896559 3.99959V4.00041C1.53556 5.6908 3.44825 7.182 5.5 7.182C7.55175 7.182 9.46444 5.69079 10.1034 3.99959C9.46444 2.3092 7.55175 0.817996 5.5 0.817996C3.44825 0.817996 1.53556 2.3092 0.896559 3.99959ZM5.5 2.15133C6.58239 2.15133 7.46482 2.97956 7.46482 4.00001C7.46482 5.02046 6.58239 5.84867 5.5 5.84867C4.41761 5.84867 3.53518 5.02046 3.53518 4.00001C3.53518 2.97956 4.41761 2.15133 5.5 2.15133ZM5.5 2.96933C4.89578 2.96933 4.40456 3.4311 4.40456 4.00001C4.40456 4.56893 4.89578 5.03067 5.5 5.03067C6.10422 5.03067 6.59544 4.56893 6.59544 4.00001C6.59544 3.4311 6.10422 2.96933 5.5 2.96933Z" fill="white"/>
</svg>
